<svg height="36" viewBox="0 0 36 36" width="36" xmlns="http://www.w3.org/2000/svg"><g fill="none" fill-rule="evenodd"><circle cx="18" cy="18" fill="#4cc1be" r="18"/><path d="m0 9.31292319c0-.09353893.04799952-.20266604.144-.32738461l6-5.79938462c.09600048-.12471857.19999944-.18707692.312-.18707692s.23199936.06235835.36.18707692l.624.608c.12800064.12471858.192.23384569.192.32738462l-.336.32738461-4.992 4.864 4.992 4.86400001c.09600048.1247186.144.2338457.144.3273846s-.04799952.2026661-.144.3273846l-.672.608c-.09600048.1247186-.19999944.1870769-.312.1870769s-.21599952-.0623583-.312-.1870769l-6-5.79938459zm8.496 7.81046151 4.848-16.08861535c0-.06235929.0639994-.15589681.192-.28061539.0640003-.06235928.1599994-.06235928.288 0l.816.28061539c.0640003 0 .1599994.04676876.288.14030769.0640003.06235929.0640003.1714864 0 .32738462l-4.848 16.08861534c0 .0623593-.0639994.1558969-.192.2806154-.06400032.0623593-.15999936.0623593-.288 0l-.816-.2806154c-.06400032 0-.15999936-.0467687-.288-.1403077zm7.488-2.6190769c0-.0935389.0479995-.202666.144-.3273846l4.992-4.86400001-4.992-4.864c-.0960005-.12471857-.144-.23384568-.144-.32738461s.0479995-.20266604.144-.32738462l.672-.608c.0960005-.12471857.1999994-.18707692.312-.18707692s.2159995.06235835.312.18707692l6 5.79938462c.0960005.12471857.144.23384568.144.32738461s-.0479995.20266605-.144.32738462l-6 5.79938459c-.0960005.1247186-.1999994.1870769-.312.1870769s-.2159995-.0623583-.312-.1870769l-.672-.608c-.0960005-.1247185-.144-.2338457-.144-.3273846z" fill="#fff" transform="translate(6 9)"/></g></svg>